<?xml version="1.0" encoding="UTF-8" standalone="no"?>
<!-- Created with Inkscape (http://www.inkscape.org/) -->

<svg
   version="1.1"
   id="svg16"
   width="256"
   height="204.8"
   viewBox="0 0 256 204.8"
   sodipodi:docname="Apfel.svg"
   inkscape:version="1.1.2 (b8e25be833, 2022-02-05)"
   xmlns:inkscape="http://www.inkscape.org/namespaces/inkscape"
   xmlns:sodipodi="http://sodipodi.sourceforge.net/DTD/sodipodi-0.dtd"
   xmlns="http://www.w3.org/2000/svg"
   xmlns:svg="http://www.w3.org/2000/svg"
   xmlns:rdf="http://www.w3.org/1999/02/22-rdf-syntax-ns#"
   xmlns:cc="http://creativecommons.org/ns#">
  <defs
     id="defs20" />
  <sodipodi:namedview
     id="namedview18"
     pagecolor="#505050"
     bordercolor="#eeeeee"
     borderopacity="1"
     inkscape:pageshadow="0"
     inkscape:pageopacity="0"
     inkscape:pagecheckerboard="0"
     showgrid="false"
     inkscape:zoom="1.7333984"
     inkscape:cx="148.84057"
     inkscape:cy="54.805635"
     inkscape:window-width="1600"
     inkscape:window-height="837"
     inkscape:window-x="-8"
     inkscape:window-y="1016"
     inkscape:window-maximized="1"
     inkscape:current-layer="g22" />
  <g
     inkscape:groupmode="layer"
     inkscape:label="Image"
     id="g22">
    <path
       style="fill:#ff2c33;stroke:#000000;stroke-width:1px;stroke-linecap:butt;stroke-linejoin:miter;stroke-opacity:1;fill-opacity:1"
       d="m 109.61127,64.612959 c 13.84564,8.653521 28.84508,-1.730704 45.57522,-6.345916 16.73014,-4.615211 58.84394,0.576902 61.15155,21.922254 2.3076,21.345353 -6.34592,97.496333 -25.96057,115.380283 -19.61465,17.88394 -51.34422,-11.53803 -66.92056,-5.19212 -15.57634,6.34592 -51.344232,13.26874 -58.267049,-1.1538 C 58.267044,174.80113 2.8845071,122.3031 30.575776,67.497466 58.267044,12.691831 109.61127,64.612959 109.61127,64.612959 Z"
       id="path2135" />
    <path
       style="fill:#554f00;stroke:#000000;stroke-width:1px;stroke-linecap:butt;stroke-linejoin:miter;stroke-opacity:1;fill-opacity:1"
       d="m 123.45691,63.459156 c 0,0 8.07662,-43.267606 16.15324,-54.2287332 8.07662,-10.9611271 24.22986,1.1538022 21.34535,4.0383102 -2.8845,2.884507 -37.49859,50.190423 -37.49859,50.190423"
       id="path2268" />
    <ellipse
       style="fill:#ffffff;stroke:none;stroke-linecap:round;stroke-linejoin:round"
       id="path2405"
       cx="79.900848"
       cy="99.227043"
       rx="21.633802"
       ry="21.345352" />
    <ellipse
       style="fill:#ffffff;stroke:none;stroke-linecap:round;stroke-linejoin:round"
       id="path2405-1"
       cx="160.95551"
       cy="101.53465"
       rx="21.633802"
       ry="21.345352" />
    <ellipse
       style="fill:#000000;stroke:none;stroke-linecap:round;stroke-linejoin:round"
       id="path2577"
       cx="79.323944"
       cy="89.419724"
       rx="11.826479"
       ry="10.961127" />
    <ellipse
       style="fill:#000000;stroke:none;stroke-linecap:round;stroke-linejoin:round"
       id="path2577-3"
       cx="160.3786"
       cy="92.881126"
       rx="11.826479"
       ry="10.961127" />
    <ellipse
       style="fill:#ffffff;stroke:none;stroke-linecap:round;stroke-linejoin:round"
       id="path2743"
       cx="72.689583"
       cy="87.689011"
       rx="3.4614086"
       ry="2.8845072" />
    <ellipse
       style="fill:#ffffff;stroke:none;stroke-linecap:round;stroke-linejoin:round"
       id="path2743-8"
       cx="156.34027"
       cy="92.881119"
       rx="3.4614086"
       ry="2.8845072" />
    <path
       style="fill:none;stroke:#000000;stroke-width:1px;stroke-linecap:butt;stroke-linejoin:miter;stroke-opacity:1"
       d="m 63.459156,148.84057 c 36.34479,16.73014 73.266484,35.19098 119.418594,12.11493"
       id="path944" />
  </g>
  <metadata
     id="metadata4893">
    <rdf:RDF>
      <cc:Work
         rdf:about="" />
    </rdf:RDF>
  </metadata>
</svg>
