<?xml version="1.0" encoding="UTF-8" standalone="no"?>
<!-- Created with Inkscape (http://www.inkscape.org/) -->

<svg
   version="1.1"
   id="svg16"
   width="256"
   height="204.8"
   viewBox="0 0 256 204.8"
   sodipodi:docname="Banane.svg"
   inkscape:version="1.1.2 (b8e25be833, 2022-02-05)"
   inkscape:export-filename="C:\Users\FGerstenlauer\OneDrive\Desktop\160_Webentwicklung\Website\GurKaNary\Kartoffel\Kartoffeltot.png"
   inkscape:export-xdpi="96"
   inkscape:export-ydpi="96"
   xmlns:inkscape="http://www.inkscape.org/namespaces/inkscape"
   xmlns:sodipodi="http://sodipodi.sourceforge.net/DTD/sodipodi-0.dtd"
   xmlns="http://www.w3.org/2000/svg"
   xmlns:svg="http://www.w3.org/2000/svg"
   xmlns:rdf="http://www.w3.org/1999/02/22-rdf-syntax-ns#"
   xmlns:cc="http://creativecommons.org/ns#"
   xmlns:dc="http://purl.org/dc/elements/1.1/">
  <title
     id="title4895">Banane</title>
  <defs
     id="defs20" />
  <sodipodi:namedview
     id="namedview18"
     pagecolor="#505050"
     bordercolor="#eeeeee"
     borderopacity="1"
     inkscape:pageshadow="0"
     inkscape:pageopacity="0"
     inkscape:pagecheckerboard="0"
     showgrid="false"
     inkscape:zoom="2.4513955"
     inkscape:cx="103.00256"
     inkscape:cy="113.81272"
     inkscape:window-width="1600"
     inkscape:window-height="837"
     inkscape:window-x="-8"
     inkscape:window-y="1016"
     inkscape:window-maximized="1"
     inkscape:current-layer="g15021"
     inkscape:snap-nodes="false" />
  <g
     inkscape:groupmode="layer"
     inkscape:label="Image"
     id="g22">
    <g
       id="g15021">
      <g
         id="g3784"
         transform="translate(-1.8299896,-0.22342702)">
        <path
           style="fill:#ffff00;stroke:#000000;stroke-width:1.79711;stroke-linecap:butt;stroke-linejoin:miter;stroke-miterlimit:4;stroke-dasharray:none;stroke-opacity:1"
           d="m 59.910923,125.6642 c 0,0 15.395024,60.1139 30.790057,64.51249 15.395,4.39858 38.8541,17.59431 48.38436,12.46264 9.53026,-5.13168 -14.66194,-12.46264 -13.19574,-15.39502 1.46619,-2.9324 -38.854113,-79.17442 -25.65837,-97.501832 13.19573,-18.327409 24.19217,-51.316748 49.11745,-57.914614 24.92529,-6.597867 33.72243,-8.06406 33.72243,-8.06406 l 2.93238,-6.597868 c 0,0 18.32743,4.398578 19.79362,1.466193 1.46618,-2.932386 2.19928,-19.7936029 -0.73309,-16.8612168 -2.9324,2.9323846 -13.19575,13.9288308 -23.4591,10.2633488 -10.26334,-3.6654816 -53.51603,-5.1316747 -53.51603,-5.1316747 0,0 -50.583655,26.3914707 -52.782943,30.0569517 -2.19929,3.665483 -22.725989,53.516036 -22.725989,59.380807 0,5.864775 7.330965,29.323855 7.330965,29.323855 z"
           id="path387" />
        <g
           id="g8962"
           transform="matrix(-1.3639359,0.25347247,0.16580375,0.89219029,-363.24251,186.9607)">
          <path
             style="fill:none;stroke:#000000;stroke-width:1.60168px;stroke-linecap:butt;stroke-linejoin:miter;stroke-opacity:1"
             d="m -341.92154,78.76498 c 0,0 0.36781,5.236434 5.09197,4.305123 4.72417,-0.931292 15.96675,-3.50906 17.70699,-6.879353"
             id="path2350" />
        </g>
        <path
           style="color:#000000;fill:#ffffff;fill-rule:evenodd;stroke-width:1.00336;-inkscape-stroke:none"
           d="m 94.329433,139.53933 a 13.795323,14.441981 0 0 1 -13.795345,14.44198 13.795323,14.441981 0 0 1 -13.795311,-14.44198 13.795323,14.441981 0 0 1 13.795311,-14.442 13.795323,14.441981 0 0 1 13.795345,14.442 z"
           id="path5077" />
        <path
           style="color:#000000;fill:#ffffff;fill-rule:evenodd;stroke-width:0.508986;-inkscape-stroke:none"
           d="m 108.04003,147.15149 a 7.1219656,6.4216926 0 0 1 -7.122,6.42169 7.1219656,6.4216926 0 0 1 -7.121961,-6.42169 7.1219656,6.4216926 0 0 1 7.121961,-6.42169 7.1219656,6.4216926 0 0 1 7.122,6.42169 z"
           id="path5071" />
        <ellipse
           style="fill:#000000;fill-rule:evenodd;stroke-width:1.0568"
           id="path1036"
           cx="80.229408"
           cy="139.91737"
           rx="9.268734"
           ry="8.8376303" />
        <ellipse
           style="fill:#000000;fill-rule:evenodd;stroke:none;stroke-width:0.436736"
           id="path1140"
           cx="101.21695"
           cy="147.57631"
           rx="3.7111509"
           ry="4.0454226" />
        <ellipse
           style="fill:#ffffff;fill-rule:evenodd;stroke-width:0.63499"
           id="path4550-6"
           cx="101.23924"
           cy="145.49153"
           rx="1.0829563"
           ry="0.99131918" />
        <circle
           style="fill:#ffffff;fill-rule:evenodd;stroke-width:1.0568"
           id="path4550"
           cx="79.830536"
           cy="135.63751"
           r="1.7244155" />
      </g>
    </g>
  </g>
  <metadata
     id="metadata4893">
    <rdf:RDF>
      <cc:Work
         rdf:about="">
        <dc:title>Banane</dc:title>
      </cc:Work>
    </rdf:RDF>
  </metadata>
</svg>
