<?xml version="1.0" encoding="UTF-8" standalone="no"?>
<!-- Created with Inkscape (http://www.inkscape.org/) -->

<svg
   version="1.1"
   id="svg16"
   width="256"
   height="204.8"
   viewBox="0 0 256 204.8"
   sodipodi:docname="Banane_tot.svg"
   inkscape:version="1.1.2 (b8e25be833, 2022-02-05)"
   inkscape:export-filename="C:\Users\FGerstenlauer\OneDrive\Desktop\160_Webentwicklung\Website\GurKaNary\Kartoffel\Kartoffeltot.png"
   inkscape:export-xdpi="96"
   inkscape:export-ydpi="96"
   xmlns:inkscape="http://www.inkscape.org/namespaces/inkscape"
   xmlns:sodipodi="http://sodipodi.sourceforge.net/DTD/sodipodi-0.dtd"
   xmlns="http://www.w3.org/2000/svg"
   xmlns:svg="http://www.w3.org/2000/svg"
   xmlns:rdf="http://www.w3.org/1999/02/22-rdf-syntax-ns#"
   xmlns:cc="http://creativecommons.org/ns#"
   xmlns:dc="http://purl.org/dc/elements/1.1/">
  <title
     id="title4895">Banane tot</title>
  <defs
     id="defs20" />
  <sodipodi:namedview
     id="namedview18"
     pagecolor="#505050"
     bordercolor="#eeeeee"
     borderopacity="1"
     inkscape:pageshadow="0"
     inkscape:pageopacity="0"
     inkscape:pagecheckerboard="0"
     showgrid="false"
     inkscape:zoom="6.9335935"
     inkscape:cx="127.56733"
     inkscape:cy="183.59888"
     inkscape:window-width="1600"
     inkscape:window-height="837"
     inkscape:window-x="-8"
     inkscape:window-y="1016"
     inkscape:window-maximized="1"
     inkscape:current-layer="g15021"
     inkscape:snap-nodes="false" />
  <g
     inkscape:groupmode="layer"
     inkscape:label="Image"
     id="g22">
    <g
       id="g15021">
      <g
         id="g4014"
         transform="matrix(1.3582397,0,0,1.3582397,-44.522911,-57.10019)">
        <path
           style="fill:#ffff00;stroke:#000000;stroke-width:1;stroke-linecap:butt;stroke-linejoin:miter;stroke-miterlimit:4;stroke-dasharray:none;stroke-opacity:1"
           d="m 88.113077,111.77307 c 0,0 8.566549,33.45033 17.133103,35.89792 8.56654,2.44759 21.62033,9.79034 26.92344,6.93483 5.3031,-2.85552 -8.15862,-6.93483 -7.34276,-8.56655 0.81586,-1.63173 -21.62034,-44.05654 -14.27758,-54.254815 7.34275,-10.198273 13.46172,-28.555164 27.33137,-32.226542 13.86965,-3.671378 18.76482,-4.48724 18.76482,-4.48724 l 1.63172,-3.671378 c 0,0 10.19828,2.447585 11.01414,0.815862 0.81586,-1.631724 1.22379,-11.014135 -0.40793,-9.382411 -1.63173,1.631723 -7.34276,7.750687 -13.05379,5.711032 -5.71103,-2.039654 -29.77896,-2.855516 -29.77896,-2.855516 0,0 -28.147231,14.685513 -29.371024,16.725167 -1.223793,2.039655 -12.645858,29.778957 -12.645858,33.042404 0,3.263448 4.079309,16.317237 4.079309,16.317237 z"
           id="path387" />
        <path
           style="color:#000000;fill:#000000;stroke-width:1.04865;stroke-miterlimit:4;stroke-dasharray:none"
           d="m 108.24326,148.78292 v 43.59862 l 9.1869,0.28868 0.0171,-0.68427 -8.58166,-0.26864 v -42.93439 z"
           id="path4944" />
        <path
           style="color:#000000;fill:#000000;stroke-width:1;stroke-miterlimit:4;stroke-dasharray:none"
           d="m 118.99247,152.80676 v 39.64744 l 9.1869,0.26253 0.017,-0.62227 -8.58165,-0.2455 v -39.0422 z"
           id="path4944-7" />
        <path
           style="fill:none;stroke:#000000;stroke-width:1px;stroke-linecap:butt;stroke-linejoin:miter;stroke-opacity:1"
           d="m 92.396351,114.73057 10.708189,10.30025"
           id="path3314" />
        <path
           style="fill:none;stroke:#000000;stroke-width:1px;stroke-linecap:butt;stroke-linejoin:miter;stroke-opacity:1"
           d="M 101.67678,114.93453 94.639971,125.7447"
           id="path3316" />
        <path
           style="fill:none;stroke:#000000;stroke-width:1px;stroke-linecap:butt;stroke-linejoin:miter;stroke-opacity:1"
           d="m 108.71359,121.86936 5.3031,6.11896"
           id="path3318" />
        <path
           style="fill:none;stroke:#000000;stroke-width:1px;stroke-linecap:butt;stroke-linejoin:miter;stroke-opacity:1"
           d="m 108.91755,127.58039 4.79319,-4.99715"
           id="path3320" />
        <path
           style="fill:none;stroke:#000000;stroke-width:1px;stroke-linecap:butt;stroke-linejoin:miter;stroke-opacity:1"
           d="m 100.14704,136.75884 c 0,0 8.2606,-8.15862 16.31724,1.01983"
           id="path3515" />
      </g>
    </g>
  </g>
  <metadata
     id="metadata4893">
    <rdf:RDF>
      <cc:Work
         rdf:about="">
        <dc:title>Banane tot</dc:title>
      </cc:Work>
    </rdf:RDF>
  </metadata>
</svg>
