<?xml version="1.0" encoding="UTF-8" standalone="no"?>
<!-- Created with Inkscape (http://www.inkscape.org/) -->

<svg
   version="1.1"
   id="svg16"
   width="256"
   height="204.8"
   viewBox="0 0 256 204.8"
   sodipodi:docname="Erdbeere.svg"
   inkscape:version="1.1.2 (b8e25be833, 2022-02-05)"
   xmlns:inkscape="http://www.inkscape.org/namespaces/inkscape"
   xmlns:sodipodi="http://sodipodi.sourceforge.net/DTD/sodipodi-0.dtd"
   xmlns="http://www.w3.org/2000/svg"
   xmlns:svg="http://www.w3.org/2000/svg"
   xmlns:rdf="http://www.w3.org/1999/02/22-rdf-syntax-ns#"
   xmlns:cc="http://creativecommons.org/ns#">
  <defs
     id="defs20" />
  <sodipodi:namedview
     id="namedview18"
     pagecolor="#505050"
     bordercolor="#eeeeee"
     borderopacity="1"
     inkscape:pageshadow="0"
     inkscape:pageopacity="0"
     inkscape:pagecheckerboard="0"
     showgrid="false"
     inkscape:zoom="1.7333984"
     inkscape:cx="148.84057"
     inkscape:cy="54.805635"
     inkscape:window-width="1600"
     inkscape:window-height="837"
     inkscape:window-x="-8"
     inkscape:window-y="1016"
     inkscape:window-maximized="1"
     inkscape:current-layer="g22" />
  <g
     inkscape:groupmode="layer"
     inkscape:label="Image"
     id="g22">
    <path
       style="fill:#ff0000;stroke:#000000;stroke-width:0.990017px;stroke-linecap:butt;stroke-linejoin:miter;stroke-opacity:1"
       d="m 129.03573,30.019621 c 0,0 -89.669344,-23.9879791 -73.677358,33.697397 12.10118,43.650682 13.6076,70.119012 26.84369,93.667342 11.807797,21.00726 35.981968,50.83167 46.262528,45.12025 10.28057,-5.71142 53.37123,-43.32527 61.11223,-63.96795 13.70741,-36.5531 20.19115,-47.254527 31.41283,-70.250503 C 234.05622,41.509529 206.71109,5.4605002 129.03573,30.019621 Z"
       id="path953"
       sodipodi:nodetypes="csssssc" />
    <ellipse
       style="fill:#ffffff;fill-rule:evenodd;stroke:#000000;stroke-width:1.99002"
       id="path886"
       cx="101.77678"
       cy="98.815544"
       rx="28.818405"
       ry="27.194832" />
    <ellipse
       style="fill:#ffffff;fill-rule:evenodd;stroke:#000000;stroke-width:2.11661"
       id="path910"
       cx="166.41982"
       cy="101.09803"
       rx="28.415133"
       ry="27.833364" />
    <ellipse
       style="fill:#000000;fill-rule:evenodd;stroke-width:2.25957"
       id="path1036"
       cx="100.03959"
       cy="96.943672"
       rx="19.817513"
       ry="18.895765" />
    <ellipse
       style="fill:#000000;fill-rule:evenodd;stroke:none;stroke-width:2.25957"
       id="path1140"
       cx="167.34315"
       cy="102.47091"
       rx="20.278385"
       ry="19.817513" />
    <circle
       style="fill:#ffffff;fill-rule:evenodd;stroke-width:2.25957"
       id="path4550-6"
       cx="167.2968"
       cy="101.49828"
       r="3.6869788" />
    <circle
       style="fill:#ffffff;fill-rule:evenodd;stroke-width:2.25957"
       id="path4550"
       cx="111.80642"
       cy="96.379761"
       r="3.6869788" />
    <path
       style="fill:#00ff00;stroke:#000000;stroke-width:0.990017px;stroke-linecap:butt;stroke-linejoin:miter;stroke-opacity:1"
       d="m 129.03573,30.019621 c -2.28457,-0.761524 -4.46976,-2.625133 -6.85371,-2.28457 -0.8754,0.125058 2.71339,2.252151 5.71143,5.711423 3.92183,4.525188 5.18963,6.393607 7.42485,11.422847 0.27878,0.627265 0.92521,1.062224 1.14229,1.713427 0.38053,1.141611 0,3.357716 0,4.569138 0,0.190382 0,-0.380761 0,-0.571142 0,-1.567989 -0.17029,-0.801721 0.57114,-2.284569 0.84252,-1.685057 1.43391,-3.847989 1.71342,-5.711423 0.48341,-3.22274 0.80114,-6.468532 1.14229,-9.70942 0.0264,-0.251041 -0.24493,-2.610783 0,-2.855711 1.77422,-1.774223 22.48174,4.205181 23.41683,5.14028 0.28558,0.285571 0.28558,0.856714 0.57115,1.142285 1.34329,1.343299 3.08122,-0.377845 -1.14229,-3.997997 -4.2348,-3.629827 -8.87469,-6.453431 -13.70741,-9.138276 -1.21158,-0.673098 -3.01795,-2.122331 -3.998,-1.142285 -0.5379,0.537898 1.98558,0.926988 4.56914,1.142285 5.38088,0.448406 10.61385,-1.142285 15.99198,-1.142285 0.19038,0 -0.38076,0 -0.57114,0 -5.54689,0 3.64683,0.170282 -2.28457,-0.571143 -4.70771,-0.588464 -9.51311,-0.592424 -14.27856,-1.142285 -3.83919,-0.442983 -6.60189,-1.142284 -10.28056,-1.142284 -1.22661,0 -2.53718,-3.295022 -2.85571,-4.569139 -0.38778,-1.551089 0.12225,-2.651334 0.57114,-3.997996 0.88716,-2.6614827 -0.36977,-7.2234798 -2.28457,-9.1382776 -1.22054,-1.22053911 -1.14228,4.7646108 -1.14228,5.1402811 0,2.3743786 0.32146,9.3879645 -0.57114,10.2805625 -0.19038,0.19038 -1.52305,0.380761 -1.71343,0.571141 -0.57115,0.571143 0,2.28457 -0.57115,2.855712 -0.43454,0.434554 -13.35298,2.639001 -13.70741,2.28457 -0.13462,-0.13462 0.17029,-0.486002 0,-0.571142 -0.45691,-0.228458 -1.25652,0.228456 -1.71343,0 -0.16538,-0.08269 -5.71142,-3.820259 -5.71142,-2.28457 0,0.602037 1.28773,0.145439 1.71342,0.571142 1.09409,1.094084 2.00425,2.720808 2.85572,3.997996 0.30674,0.460123 2.06877,1.358085 1.71342,1.713428 -0.26923,0.269239 -0.78105,-0.120408 -1.14228,0 -4.13703,1.379007 0.90047,-0.164662 -1.71342,1.142285 -2.79127,1.395631 -6.34809,1.685297 -7.996,4.569138 -1.68054,2.940952 -2.70736,3.857066 -2.28457,3.997997 0.62404,0.20801 20.16719,-3.92576 21.13226,-4.56914 0.15842,-0.105604 0,-0.38076 0,-0.571142 0.38077,0 0.80173,0.170282 1.1423,0 0.34055,-0.170281 -0.31682,-0.931076 0,-1.142284 0.3643,-0.242872 3.7195,-2.084745 3.99799,-1.713427 0.51084,0.681127 0.76152,1.523046 1.14228,2.28457"
       id="path1408" />
    <path
       style="fill:none;stroke:#000000;stroke-width:1px;stroke-linecap:butt;stroke-linejoin:miter;stroke-opacity:1"
       d="m 87.689016,143.64845 c 76.727884,5.76902 90.573524,-7.49971 90.573524,-7.49971"
       id="path1636" />
    <ellipse
       style="fill:#ffff00;stroke:none;stroke-linecap:round;stroke-linejoin:round"
       id="path1740"
       cx="88.842819"
       cy="56.536339"
       rx="3.4614086"
       ry="4.0383101" />
    <ellipse
       style="fill:#ffff00;stroke:none;stroke-linecap:round;stroke-linejoin:round"
       id="path1740-2"
       cx="135.57184"
       cy="68.651268"
       rx="3.4614086"
       ry="4.0383101" />
    <ellipse
       style="fill:#ffff00;stroke:none;stroke-linecap:round;stroke-linejoin:round"
       id="path1740-6"
       cx="122.3031"
       cy="167.87831"
       rx="3.4614086"
       ry="4.0383101" />
    <ellipse
       style="fill:#ffff00;stroke:none;stroke-linecap:round;stroke-linejoin:round"
       id="path1740-5"
       cx="143.07156"
       cy="134.99493"
       rx="3.4614086"
       ry="4.0383101" />
    <ellipse
       style="fill:#ffff00;stroke:none;stroke-linecap:round;stroke-linejoin:round"
       id="path1740-9"
       cx="189.22365"
       cy="41.536911"
       rx="3.4614086"
       ry="4.0383101" />
  </g>
  <metadata
     id="metadata4893">
    <rdf:RDF>
      <cc:Work
         rdf:about="" />
    </rdf:RDF>
  </metadata>
</svg>
