<?xml version="1.0" encoding="UTF-8" standalone="no"?>
<!-- Created with Inkscape (http://www.inkscape.org/) -->

<svg
   version="1.1"
   id="svg16"
   width="256"
   height="204.8"
   viewBox="0 0 256 204.8"
   sodipodi:docname="Gurke_tot.svg"
   inkscape:version="1.1.2 (b8e25be833, 2022-02-05)"
   inkscape:export-filename="C:\Users\FGerstenlauer\OneDrive\Desktop\160_Webentwicklung\Website\GurKaNary\Kartoffel\Kartoffeltot.png"
   inkscape:export-xdpi="96"
   inkscape:export-ydpi="96"
   xmlns:inkscape="http://www.inkscape.org/namespaces/inkscape"
   xmlns:sodipodi="http://sodipodi.sourceforge.net/DTD/sodipodi-0.dtd"
   xmlns="http://www.w3.org/2000/svg"
   xmlns:svg="http://www.w3.org/2000/svg"
   xmlns:rdf="http://www.w3.org/1999/02/22-rdf-syntax-ns#"
   xmlns:cc="http://creativecommons.org/ns#"
   xmlns:dc="http://purl.org/dc/elements/1.1/">
  <title
     id="title4895">Gurke tot</title>
  <defs
     id="defs20" />
  <sodipodi:namedview
     id="namedview18"
     pagecolor="#505050"
     bordercolor="#eeeeee"
     borderopacity="1"
     inkscape:pageshadow="0"
     inkscape:pageopacity="0"
     inkscape:pagecheckerboard="0"
     showgrid="false"
     inkscape:zoom="2.4513955"
     inkscape:cx="126.05065"
     inkscape:cy="110.14135"
     inkscape:window-width="1600"
     inkscape:window-height="837"
     inkscape:window-x="-8"
     inkscape:window-y="1016"
     inkscape:window-maximized="1"
     inkscape:current-layer="g15021"
     inkscape:snap-nodes="false" />
  <g
     inkscape:groupmode="layer"
     inkscape:label="Image"
     id="g22">
    <g
       id="g15021">
      <g
         id="g848"
         transform="matrix(1.1159214,0,0,1.1159214,-9.900653,-6.3449298)">
        <path
           style="color:#000000;fill:#000000;stroke-width:0.622264;-inkscape-stroke:none"
           d="m 103.45007,148.68094 v 39.64745 l 9.1869,0.26252 0.0171,-0.62226 -8.58166,-0.24429 v -39.04342 z"
           id="path4944" />
        <path
           style="color:#000000;fill:#000000;stroke-width:0.622264;-inkscape-stroke:none"
           d="m 117.0548,149.0334 v 39.64744 l 9.1869,0.26253 0.017,-0.62227 -8.58165,-0.2455 v -39.0422 z"
           id="path4944-7" />
        <path
           style="fill:#005700;fill-opacity:1;stroke:#000000;stroke-width:0.588059px;stroke-linecap:butt;stroke-linejoin:miter;stroke-opacity:1"
           d="m 103.8266,149.66356 c 6.0512,5.75735 5.24596,6.42341 13.44493,0.33308 8.19896,-6.09033 11.66381,-7.52673 17.18121,-30.31604 2.61939,-10.27158 6.13261,-31.297991 7.60161,-41.865892 2.1004,-15.109999 3.8137,-25.958989 5.84208,-48.879745 C 149.07176,11.190354 138.6643,0.93340009 129.30869,9.0895724 119.95308,17.245744 114.11505,31.43703 113.47612,39.075501 c -0.9425,11.267648 -7.28319,53.333642 -11.14125,68.775369 -1.99205,13.18103 -6.721609,33.25325 1.49173,41.81269 z"
           id="path833"
           sodipodi:nodetypes="cscscsscc" />
        <path
           style="fill:none;stroke:#657c60;stroke-width:0.588059px;stroke-linecap:round;stroke-linejoin:miter;stroke-opacity:1"
           d="m 137.41513,11.091696 c 6.78505,21.033628 -8.4813,98.043854 -8.4813,98.043854"
           id="path12575" />
        <path
           style="fill:none;stroke:#657c60;stroke-width:0.588059px;stroke-linecap:round;stroke-linejoin:miter;stroke-opacity:1"
           d="M 133.34411,10.413193 C 120.45253,35.857098 110.95348,107.10003 110.95348,107.10003"
           id="path12577" />
        <g
           id="g8720"
           transform="matrix(0.52304159,0,0,0.52304159,288.71672,98.284451)">
          <g
             id="g8962">
            <path
               style="color:#000000;fill:#000000;stroke-width:0.693441;-inkscape-stroke:none"
               d="m -319.32231,79.110086 0.58676,-0.36813 c 0,0 -2.86495,-4.592716 -7.24438,-7.489844 -2.18971,-1.448564 -4.77576,-2.480762 -7.57604,-2.263288 -2.80029,0.217472 -5.78093,1.694908 -8.72534,5.146385 l 0.52715,0.449744 c 2.85862,-3.350914 5.65302,-4.702844 8.25116,-4.904619 2.59815,-0.201774 5.03407,0.756312 7.14075,2.149948 4.21336,2.787269 7.03994,7.279804 7.03994,7.279804 z"
               id="path4446" />
            <path
               style="fill:none;stroke:#000000;stroke-width:1px;stroke-linecap:butt;stroke-linejoin:miter;stroke-opacity:1"
               d="m -333.14564,36.769692 -16.11174,16.560422"
               id="path554-2" />
            <path
               style="fill:none;stroke:#000000;stroke-width:1px;stroke-linecap:butt;stroke-linejoin:miter;stroke-opacity:1"
               d="m -348.37299,37.121712 15.50137,17.133098"
               id="path554" />
            <path
               style="fill:none;stroke:#000000;stroke-width:1px;stroke-linecap:butt;stroke-linejoin:miter;stroke-opacity:1"
               d="M -306.60206,37.768169 -322.7138,54.328591"
               id="path554-2-2" />
            <path
               style="fill:none;stroke:#000000;stroke-width:1px;stroke-linecap:butt;stroke-linejoin:miter;stroke-opacity:1"
               d="m -321.01356,38.936051 15.50137,17.133098"
               id="path554-8" />
          </g>
        </g>
      </g>
    </g>
  </g>
  <metadata
     id="metadata4893">
    <rdf:RDF>
      <cc:Work
         rdf:about="">
        <dc:title>Gurke tot</dc:title>
      </cc:Work>
    </rdf:RDF>
  </metadata>
</svg>
