<?xml version="1.0" encoding="UTF-8" standalone="no"?>
<!-- Created with Inkscape (http://www.inkscape.org/) -->

<svg
   version="1.1"
   id="svg16"
   width="256"
   height="204.8"
   viewBox="0 0 256 204.8"
   sodipodi:docname="Gurke.svg"
   inkscape:version="1.1.2 (b8e25be833, 2022-02-05)"
   inkscape:export-filename="C:\Users\FGerstenlauer\OneDrive\Desktop\160_Webentwicklung\Website\GurKaNary\Kartoffel\Kartoffeltot.png"
   inkscape:export-xdpi="96"
   inkscape:export-ydpi="96"
   xmlns:inkscape="http://www.inkscape.org/namespaces/inkscape"
   xmlns:sodipodi="http://sodipodi.sourceforge.net/DTD/sodipodi-0.dtd"
   xmlns="http://www.w3.org/2000/svg"
   xmlns:svg="http://www.w3.org/2000/svg"
   xmlns:rdf="http://www.w3.org/1999/02/22-rdf-syntax-ns#"
   xmlns:cc="http://creativecommons.org/ns#"
   xmlns:dc="http://purl.org/dc/elements/1.1/">
  <title
     id="title4895">Gurke gehend</title>
  <defs
     id="defs20" />
  <sodipodi:namedview
     id="namedview18"
     pagecolor="#505050"
     bordercolor="#eeeeee"
     borderopacity="1"
     inkscape:pageshadow="0"
     inkscape:pageopacity="0"
     inkscape:pagecheckerboard="0"
     showgrid="false"
     inkscape:zoom="1.7333984"
     inkscape:cx="117.11099"
     inkscape:cy="107.88057"
     inkscape:window-width="1600"
     inkscape:window-height="837"
     inkscape:window-x="-8"
     inkscape:window-y="1016"
     inkscape:window-maximized="1"
     inkscape:current-layer="g15021"
     inkscape:snap-nodes="false" />
  <g
     inkscape:groupmode="layer"
     inkscape:label="Image"
     id="g22">
    <g
       id="g15021">
      <g
         id="g15434"
         transform="matrix(0.80719456,0,0,0.80719456,45.480303,-10.244826)">
        <path
           style="fill:#005700;fill-opacity:1;stroke:#000000;stroke-width:1px;stroke-linecap:butt;stroke-linejoin:miter;stroke-opacity:1"
           d="m 68.64688,257.56505 c 10.290135,9.79043 8.920815,10.92308 22.863235,0.56641 13.942415,-10.35667 19.834425,-12.79928 29.216825,-51.55272 4.45429,-17.46692 10.42855,-53.22254 12.92661,-71.19336 3.57174,-25.6947 6.48522,-44.143512 9.93451,-83.120481 1.99866,-30.17488 -15.69933,-47.6169303 -31.60864,-33.74728 -15.909295,13.86965 -25.836925,38.00207 -26.923435,50.991364 -1.60273,19.160744 -12.38513,90.694377 -18.945805,116.953177 -3.3875,22.41447 -11.43016,56.54749 2.5367,71.10289 z"
           id="path833"
           sodipodi:nodetypes="cscscsscc" />
        <g
           id="g8962"
           transform="translate(417.96507,162.39775)">
          <path
             style="color:#000000;fill:#000000;stroke-width:0.90219;-inkscape-stroke:none"
             d="m -320.13817,70.951468 0.58676,0.623129 c 0,0 -2.86495,7.774032 -7.24438,12.677964 -2.18971,2.451966 -4.77576,4.199155 -7.57604,3.831039 -2.80029,-0.368112 -5.78093,-2.868949 -8.72534,-8.711221 l 0.52715,-0.761275 c 2.85862,5.672049 5.65302,7.960444 8.25116,8.301986 2.59815,0.34154 5.03407,-1.2802 7.14075,-3.63919 4.21336,-4.717975 7.03994,-12.322432 7.03994,-12.322432 z"
             id="path4446" />
        </g>
        <path
           style="fill:none;stroke:#657c60;stroke-width:1px;stroke-linecap:round;stroke-linejoin:miter;stroke-opacity:1"
           d="M 125.76451,21.922249 C 137.30254,57.690139 111.34197,188.64677 111.34197,188.64677"
           id="path12575" />
        <path
           style="fill:none;stroke:#657c60;stroke-width:1px;stroke-linecap:round;stroke-linejoin:miter;stroke-opacity:1"
           d="M 118.84169,20.768449 C 96.919445,64.036057 80.766205,185.18536 80.766205,185.18536"
           id="path12577" />
        <path
           style="color:#000000;fill:#ffffff;fill-rule:evenodd;stroke-width:0.949426;-inkscape-stroke:none"
           d="m 116.63599,213.37153 a 13.053788,13.665686 0 0 1 -13.0538,13.66568 13.053788,13.665686 0 0 1 -13.053785,-13.66568 13.053788,13.665686 0 0 1 13.053785,-13.66569 13.053788,13.665686 0 0 1 13.0538,13.66569 z"
           id="path5077" />
        <path
           style="color:#000000;fill:#ffffff;fill-rule:evenodd;stroke-width:0.930797;-inkscape-stroke:none"
           d="m 90.936335,210.51602 a 13.155772,11.626031 0 0 1 -13.15577,11.62603 13.155772,11.626031 0 0 1 -13.155775,-11.62603 13.155772,11.626031 0 0 1 13.155775,-11.62603 13.155772,11.626031 0 0 1 13.15577,11.62603 z"
           id="path5071" />
        <ellipse
           style="fill:#000000;fill-rule:evenodd"
           id="path1036"
           cx="78.494446"
           cy="211.12791"
           rx="8.7705145"
           ry="8.3625832" />
        <ellipse
           style="fill:#000000;fill-rule:evenodd;stroke:none"
           id="path1140"
           cx="103.99011"
           cy="213.77946"
           rx="8.9744797"
           ry="8.7705145" />
        <circle
           style="fill:#ffffff;fill-rule:evenodd"
           id="path4550-6"
           cx="103.66437"
           cy="213.80112"
           r="1.6317236" />
        <circle
           style="fill:#ffffff;fill-rule:evenodd"
           id="path4550"
           cx="78.290466"
           cy="210.71999"
           r="1.6317236" />
      </g>
    </g>
  </g>
  <metadata
     id="metadata4893">
    <rdf:RDF>
      <cc:Work
         rdf:about="">
        <dc:title>Gurke gehend</dc:title>
      </cc:Work>
    </rdf:RDF>
  </metadata>
</svg>
