<?xml version="1.0" encoding="UTF-8" standalone="no"?>
<!-- Created with Inkscape (http://www.inkscape.org/) -->

<svg
   version="1.1"
   id="svg16"
   width="256"
   height="204.8"
   viewBox="0 0 256 204.8"
   sodipodi:docname="Karotte.svg"
   inkscape:version="1.1.2 (b8e25be833, 2022-02-05)"
   xmlns:inkscape="http://www.inkscape.org/namespaces/inkscape"
   xmlns:sodipodi="http://sodipodi.sourceforge.net/DTD/sodipodi-0.dtd"
   xmlns="http://www.w3.org/2000/svg"
   xmlns:svg="http://www.w3.org/2000/svg"
   xmlns:rdf="http://www.w3.org/1999/02/22-rdf-syntax-ns#"
   xmlns:cc="http://creativecommons.org/ns#">
  <defs
     id="defs20" />
  <sodipodi:namedview
     id="namedview18"
     pagecolor="#505050"
     bordercolor="#eeeeee"
     borderopacity="1"
     inkscape:pageshadow="0"
     inkscape:pageopacity="0"
     inkscape:pagecheckerboard="0"
     showgrid="false"
     inkscape:zoom="2.4513955"
     inkscape:cx="163.17236"
     inkscape:cy="107.69376"
     inkscape:window-width="1600"
     inkscape:window-height="837"
     inkscape:window-x="-8"
     inkscape:window-y="1016"
     inkscape:window-maximized="1"
     inkscape:current-layer="g22" />
  <g
     inkscape:groupmode="layer"
     inkscape:label="Image"
     id="g22">
    <path
       style="fill:#00ff00;stroke:#000000;stroke-width:1px;stroke-linecap:butt;stroke-linejoin:miter;stroke-opacity:1"
       d="m 139.03324,77.30479 c 38.0755,-4.615211 49.61352,9.807325 65.76676,4.615212 16.15324,-5.192113 34.03719,-48.45972 39.8062,-49.613522 5.76902,-1.153803 16.15324,-27.6912686 4.61521,-18.460846 -11.53802,9.230423 -31.72957,54.805635 -44.99831,55.959438 -13.26873,1.153803 -65.18986,7.499718 -65.18986,7.499718 z"
       id="path4974" />
    <path
       style="fill:#00ff00;stroke:#000000;stroke-width:1px;stroke-linecap:butt;stroke-linejoin:miter;stroke-opacity:1"
       d="m 130.95662,68.074368 c 0,0 -10.96112,-4.615212 12.11493,-20.19155 23.07606,-15.576338 32.88338,-43.2676066 47.30592,-40.3830995 14.42253,2.8845075 42.1138,-6.3459157 32.30648,2.3076057 -9.80733,8.6535208 -11.53803,5.7690138 -24.22986,12.1149298 -12.69183,6.345916 -43.84451,21.922254 -46.15211,26.537465 -2.30761,4.615212 -21.34536,19.614649 -21.34536,19.614649 z"
       id="path4976" />
    <path
       style="fill:#00ff00;stroke:#000000;stroke-width:1px;stroke-linecap:butt;stroke-linejoin:miter;stroke-opacity:1"
       d="m 135.28338,72.401128 c 0,0 4.61521,-9.518873 11.82648,-13.557183 7.21127,-4.03831 35.47944,4.03831 42.11381,-4.903662 6.63436,-8.941972 -1.44226,-26.249015 10.09577,-26.249015 11.53803,0 18.7493,3.461409 12.40338,10.672677 -6.34591,7.211267 -10.38422,20.191549 -19.9031,22.210704 -9.51887,2.019155 -29.99887,-0.28845 -38.36394,4.903662 -8.36507,5.192113 -14.42254,11.826479 -14.42254,11.826479 l -4.32676,-4.03831 z"
       id="path4978" />
    <path
       style="fill:#ff6600;stroke:#000000;stroke-width:1px;stroke-linecap:butt;stroke-linejoin:miter;stroke-opacity:1"
       d="m 4.6152114,196.72338 c 0,0 1.1538028,-16.73014 6.9228166,-18.46084 5.769015,-1.73071 4.03831,-19.61465 16.730142,-25.38366 12.691831,-5.76902 10.961127,-34.61409 25.383662,-39.2293 14.422536,-4.61521 8.07662,-24.806761 28.845071,-26.537465 20.768447,-1.730705 23.652957,-27.114367 38.075497,-24.22986 14.42253,2.884507 34.03718,28.26817 34.03718,28.26817 0,0 -10.38422,12.691835 -20.19155,19.037745 -9.80732,6.34592 -16.15324,1.1538 -22.49915,6.34592 -6.34592,5.19211 -1.15381,18.46084 -6.92282,20.76845 -5.769016,2.3076 -23.076058,-4.03831 -27.114368,5.76901 -4.03831,9.80733 4.615211,21.34535 -8.653521,24.22986 -13.268733,2.88451 -23.076057,-2.3076 -24.806762,6.92282 -1.730704,9.23042 -1.730704,19.61465 -12.114929,18.46084 -10.384226,-1.1538 -19.614649,1.15381 -27.6912686,4.03831 z"
       id="path4906" />
    <ellipse
       style="fill:#ffffff;stroke:#000000;stroke-linecap:round;stroke-linejoin:round"
       id="path5100"
       cx="125.03082"
       cy="91.172554"
       rx="14.889478"
       ry="13.665686" />
    <ellipse
       style="fill:#ffffff;stroke:#000000;stroke-linecap:round;stroke-linejoin:round"
       id="path5102"
       cx="84.441696"
       cy="103.20652"
       rx="10.198273"
       ry="9.7903414" />
    <circle
       style="fill:#ffffff;stroke:#000000;stroke-linecap:round;stroke-linejoin:round;stroke-width:5;stroke-miterlimit:4;stroke-dasharray:none"
       id="path5170"
       cx="84.033768"
       cy="105.65411"
       r="4.079309" />
    <ellipse
       style="fill:#ffffff;stroke:#000000;stroke-width:4.93424;stroke-linecap:round;stroke-linejoin:round;stroke-miterlimit:4;stroke-dasharray:none"
       id="path5172"
       cx="123.60307"
       cy="96.475662"
       rx="4.9280524"
       ry="4.3161564" />
    <path
       style="fill:none;stroke:#000000;stroke-width:1px;stroke-linecap:butt;stroke-linejoin:miter;stroke-opacity:1"
       d="m 71.79584,128.90617 c 31.00275,0.81586 31.41068,5.3031 31.41068,5.3031"
       id="path5287" />
  </g>
  <metadata
     id="metadata4893">
    <rdf:RDF>
      <cc:Work
         rdf:about="" />
    </rdf:RDF>
  </metadata>
</svg>
