<?xml version="1.0" encoding="UTF-8" standalone="no"?>
<!-- Created with Inkscape (http://www.inkscape.org/) -->

<svg
   version="1.1"
   id="svg16"
   width="125.89135"
   height="203.60979"
   viewBox="0 0 125.89135 203.60978"
   sodipodi:docname="Kartoffel_stehend.svg"
   inkscape:version="1.1.2 (b8e25be833, 2022-02-05)"
   inkscape:export-filename="C:\Users\FGerstenlauer\OneDrive\Desktop\160_Webentwicklung\Website\GurKaNary\Kartoffel\Kartoffel.png"
   inkscape:export-xdpi="96"
   inkscape:export-ydpi="96"
   xmlns:inkscape="http://www.inkscape.org/namespaces/inkscape"
   xmlns:sodipodi="http://sodipodi.sourceforge.net/DTD/sodipodi-0.dtd"
   xmlns="http://www.w3.org/2000/svg"
   xmlns:svg="http://www.w3.org/2000/svg"
   xmlns:rdf="http://www.w3.org/1999/02/22-rdf-syntax-ns#"
   xmlns:cc="http://creativecommons.org/ns#"
   xmlns:dc="http://purl.org/dc/elements/1.1/">
  <title
     id="title4895">Kartoffel stehend</title>
  <defs
     id="defs20" />
  <sodipodi:namedview
     id="namedview18"
     pagecolor="#505050"
     bordercolor="#eeeeee"
     borderopacity="1"
     inkscape:pageshadow="0"
     inkscape:pageopacity="0"
     inkscape:pagecheckerboard="0"
     showgrid="false"
     inkscape:zoom="1.7333984"
     inkscape:cx="15.287888"
     inkscape:cy="148.26367"
     inkscape:window-width="1600"
     inkscape:window-height="837"
     inkscape:window-x="-8"
     inkscape:window-y="1016"
     inkscape:window-maximized="1"
     inkscape:current-layer="g22"
     width="125.89135px"
     fit-margin-top="0"
     fit-margin-left="0"
     fit-margin-right="0"
     fit-margin-bottom="0"
     height="203.60979px" />
  <g
     inkscape:groupmode="layer"
     inkscape:label="Image"
     id="g22"
     transform="translate(-79.467951,-0.12293802)">
    <g
       id="g857"
       transform="matrix(1.3401697,0,0,1.3323558,9.1315331,-22.909556)">
      <g
         id="g5103">
        <g
           id="path535">
          <path
             style="color:#000000;fill:#c24132;stroke-width:1px;-inkscape-stroke:none"
             d="m 68.124461,50.583432 c 0,0 -11.2181,24.475854 0.611897,38.753434 11.829997,14.277584 15.297407,15.297414 20.192577,15.705344 4.89517,0.40793 8.77052,-3.46741 12.033955,-2.24362 3.26345,1.22379 9.38241,5.71103 18.15293,1.01983 8.77051,-4.691214 16.72517,-11.014144 15.50137,-25.903614 C 133.3934,63.025325 132.98547,43.444641 122.58323,29.574991 112.18099,15.70534 94.436005,17.94896 94.436005,17.94896 c 0,0 -7.54672,3.467413 -10.6062,10.198273 -3.05949,6.730859 -15.705344,22.436199 -15.705344,22.436199 z"
             id="path5083" />
          <path
             style="color:#000000;fill:#000000;-inkscape-stroke:none"
             d="m 97.355469,17.316406 c -1.855498,-0.0061 -2.982422,0.136719 -2.982422,0.136719 l -0.07617,0.0098 -0.07031,0.03125 c 0,0 -7.690681,3.491371 -10.851562,10.445312 -1.482978,3.262543 -5.409897,8.893437 -8.947266,13.652344 -3.537369,4.758906 -6.693359,8.677734 -6.693359,8.677734 l -0.03906,0.04883 -0.02539,0.05664 c 0,0 -2.830128,6.17285 -4.167969,14.148437 -1.33784,7.975588 -1.20448,17.826155 4.849609,25.132813 5.926574,7.152761 9.766684,11.003305 12.792969,13.142575 3.026286,2.13927 5.269978,2.53617 7.742188,2.74219 2.589046,0.21575 4.864155,-0.69535 6.849609,-1.45899 1.985454,-0.76363 3.64246,-1.34257 5.050784,-0.81445 3.0796,1.15484 9.59173,5.79154 18.56445,0.99219 4.4122,-2.36002 8.66667,-5.151861 11.66797,-9.27539 3.0013,-4.123529 4.71532,-9.572695 4.0957,-17.111328 -1.2216,-14.86284 -1.59881,-34.552334 -12.13281,-48.597656 -7.93615,-10.581557 -20.06047,-11.940788 -25.626961,-11.95902 z m 0.03125,0.998047 c 5.390261,0.02001 17.129671,1.337613 24.796871,11.560547 10.27047,13.69395 10.70957,33.163986 11.93555,48.080078 0.60418,7.350822 -1.0455,12.508307 -3.9082,16.441406 -2.8627,3.9331 -6.97178,6.649276 -11.33008,8.980466 -8.5683,4.58304 -14.2949,0.24586 -17.74219,-1.04687 -1.855108,-0.69567 -3.767895,0.0523 -5.759764,0.81836 -1.991868,0.7661 -4.102084,1.5867 -6.408203,1.39453 -2.422955,-0.20191 -4.359341,-0.51853 -7.248047,-2.56055 C 78.833951,99.940405 75.024506,96.142386 69.121094,89.017578 63.345198,82.04667 63.17262,72.521172 64.486328,64.689453 c 1.306342,-7.787808 4.043374,-13.786017 4.074219,-13.853516 0.04365,-0.05423 3.144217,-3.905223 6.669922,-8.648437 3.550423,-4.776469 7.478179,-10.365675 9.054687,-13.833984 2.935341,-6.457753 10.18468,-9.859619 10.296875,-9.91211 0.0613,-0.0075 1.060176,-0.13343 2.804688,-0.126953 z"
             id="path5085" />
        </g>
        <g
           id="path886">
          <path
             style="color:#000000;fill:#ffffff;fill-rule:evenodd;-inkscape-stroke:none"
             d="M 104.02239,58.130157 A 14.481547,13.665686 0 0 1 89.54084,71.795843 14.481547,13.665686 0 0 1 75.059293,58.130157 14.481547,13.665686 0 0 1 89.54084,44.464472 14.481547,13.665686 0 0 1 104.02239,58.130157 Z"
             id="path5077" />
          <path
             style="color:#000000;fill:#000000;fill-rule:evenodd;-inkscape-stroke:none"
             d="m 89.541016,43.964844 c -8.252926,0 -14.982422,6.332321 -14.982422,14.166015 0,7.833695 6.729496,14.164063 14.982422,14.164063 8.252926,0 14.980464,-6.330368 14.980464,-14.164063 0,-7.833694 -6.727538,-14.166015 -14.980464,-14.166015 z m 0,1 c 7.742933,0 13.980464,5.905025 13.980464,13.166015 0,7.26099 -6.237531,13.164063 -13.980464,13.164063 -7.742934,0 -13.982422,-5.903073 -13.982422,-13.164063 0,-7.26099 6.239488,-13.166015 13.982422,-13.166015 z"
             id="path5079" />
        </g>
        <g
           id="path910">
          <path
             style="color:#000000;fill:#ffffff;fill-rule:evenodd;-inkscape-stroke:none"
             d="M 128.90617,62.617401 A 12.543876,14.073616 0 0 1 116.3623,76.691017 12.543876,14.073616 0 0 1 103.81842,62.617401 12.543876,14.073616 0 0 1 116.3623,48.543785 12.543876,14.073616 0 0 1 128.90617,62.617401 Z"
             id="path5071" />
          <path
             style="color:#000000;fill:#000000;fill-rule:evenodd;-inkscape-stroke:none"
             d="m 116.36133,48.042969 c -7.23096,0 -13.04297,6.560735 -13.04297,14.574218 0,8.013484 5.81201,14.574219 13.04297,14.574219 7.23096,0 13.04492,-6.560735 13.04492,-14.574219 0,-8.013483 -5.81396,-14.574218 -13.04492,-14.574218 z m 0,1 c 6.62461,0 12.04492,6.042431 12.04492,13.574218 0,7.531788 -5.42031,13.574219 -12.04492,13.574219 -6.62461,0 -12.04297,-6.042431 -12.04297,-13.574219 0,-7.531787 5.41836,-13.574218 12.04297,-13.574218 z"
             id="path5073" />
        </g>
        <ellipse
           style="fill:#000000;fill-rule:evenodd"
           id="path1036"
           cx="91.58049"
           cy="62.821358"
           rx="8.7705145"
           ry="8.3625832" />
        <ellipse
           style="fill:#000000;fill-rule:evenodd;stroke:none"
           id="path1140"
           cx="116.26031"
           cy="66.288773"
           rx="8.9744797"
           ry="8.7705145" />
        <circle
           style="fill:#ffffff;fill-rule:evenodd"
           id="path4550-6"
           cx="116.75043"
           cy="61.007324"
           r="1.6317236" />
        <path
           style="color:#000000;fill:#000000;-inkscape-stroke:none"
           d="m 82.408203,80.083984 -0.828125,0.558594 c 0,0 4.348482,6.482679 10.798828,10.449219 3.225173,1.98327 7.001691,3.347515 11.027344,2.90039 4.02565,-0.447124 8.25109,-2.718833 12.33008,-7.833984 l -0.78125,-0.623047 c -3.96014,4.966115 -7.92315,7.048042 -11.6582,7.462891 C 99.561818,93.412895 96.00522,92.1483 92.902344,90.240234 86.696592,86.424104 82.408203,80.083984 82.408203,80.083984 Z"
           id="path4446" />
        <circle
           style="fill:#ffffff;fill-rule:evenodd"
           id="path4550"
           cx="92.192383"
           cy="58.74205"
           r="1.6317236" />
        <path
           style="color:#000000;fill:#000000;-inkscape-stroke:none"
           d="m 87.613281,105.24609 v 63.71485 l 14.763669,0.42187 0.0274,-1 -13.791019,-0.39258 v -62.74414 z"
           id="path4944" />
        <path
           style="color:#000000;fill:#000000;-inkscape-stroke:none"
           d="m 109.47656,105.8125 v 63.71484 l 14.76367,0.42188 0.0273,-1 -13.79102,-0.39453 V 105.8125 Z"
           id="path4944-7" />
      </g>
    </g>
  </g>
  <metadata
     id="metadata4893">
    <rdf:RDF>
      <cc:Work
         rdf:about="">
        <dc:title>Kartoffel stehend</dc:title>
      </cc:Work>
    </rdf:RDF>
  </metadata>
</svg>
