<?xml version="1.0" encoding="UTF-8" standalone="no"?>
<!-- Created with Inkscape (http://www.inkscape.org/) -->

<svg
   version="1.1"
   id="svg16"
   width="256"
   height="204.8"
   viewBox="0 0 256 204.8"
   sodipodi:docname="Melone.svg"
   inkscape:version="1.1.2 (b8e25be833, 2022-02-05)"
   xmlns:inkscape="http://www.inkscape.org/namespaces/inkscape"
   xmlns:sodipodi="http://sodipodi.sourceforge.net/DTD/sodipodi-0.dtd"
   xmlns="http://www.w3.org/2000/svg"
   xmlns:svg="http://www.w3.org/2000/svg"
   xmlns:rdf="http://www.w3.org/1999/02/22-rdf-syntax-ns#"
   xmlns:cc="http://creativecommons.org/ns#">
  <defs
     id="defs20" />
  <sodipodi:namedview
     id="namedview18"
     pagecolor="#505050"
     bordercolor="#eeeeee"
     borderopacity="1"
     inkscape:pageshadow="0"
     inkscape:pageopacity="0"
     inkscape:pagecheckerboard="0"
     showgrid="false"
     inkscape:zoom="2.4513955"
     inkscape:cx="163.17236"
     inkscape:cy="107.69376"
     inkscape:window-width="1600"
     inkscape:window-height="837"
     inkscape:window-x="-8"
     inkscape:window-y="1016"
     inkscape:window-maximized="1"
     inkscape:current-layer="g22" />
  <g
     inkscape:groupmode="layer"
     inkscape:label="Image"
     id="g22">
    <ellipse
       style="fill:#00ff00;stroke:#000000;stroke-width:0.992699;stroke-linecap:round;stroke-linejoin:round;stroke-miterlimit:4;stroke-dasharray:none"
       id="path5565"
       cx="127.68237"
       cy="103.00256"
       rx="119.46069"
       ry="92.126472" />
    <path
       style="fill:#008000;stroke:#000000;stroke-width:0.992699px;stroke-linecap:butt;stroke-linejoin:miter;stroke-opacity:1"
       d="m 135.37645,12.495888 c 0,0 36.85059,28.346607 42.51991,43.329813 5.66933,14.983207 17.81787,28.751559 13.36341,51.833799 -4.45447,23.08223 -2.83467,56.28827 -11.7436,66.41205 -8.90894,10.12379 -15.38815,-53.4536 -14.17331,-55.47836 1.21486,-2.02476 8.50399,-20.247578 7.69409,-39.685252 -0.80991,-19.437672 -6.88418,-33.206025 -17.81787,-45.35457 -10.9337,-12.148546 -19.84263,-21.05748 -19.84263,-21.05748 z"
       id="path5698" />
    <path
       style="fill:#008000;stroke:#000000;stroke-width:0.992699px;stroke-linecap:butt;stroke-linejoin:miter;stroke-opacity:1"
       d="m 105.81499,16.950355 c 0,0 -36.850587,12.148545 -42.519908,26.7268 C 57.62576,58.25541 51.956438,73.643568 52.36139,84.172308 c 0.404952,10.528739 -4.049515,47.379322 2.834662,61.957592 6.884175,14.57825 10.528739,30.37135 20.247576,35.23077 9.718836,4.85942 19.437672,5.66932 19.437672,5.66932 L 79.08819,176.50125 64.914888,140.46057 c 0,0 -0.404953,-42.114958 0,-45.354571 C 65.319839,91.866387 75.848579,60.280167 85.567416,42.867252 95.286251,25.454337 105.81499,16.950355 105.81499,16.950355 Z"
       id="path5733" />
    <ellipse
       style="fill:#ffffff;stroke:#000000;stroke-width:0.992699;stroke-linecap:round;stroke-linejoin:round;stroke-miterlimit:4;stroke-dasharray:none"
       id="path5892"
       cx="70.786682"
       cy="69.391571"
       rx="35.433258"
       ry="5.0618939" />
    <ellipse
       style="fill:#ffffff;stroke:#000000;stroke-width:0.992699;stroke-linecap:round;stroke-linejoin:round;stroke-miterlimit:4;stroke-dasharray:none"
       id="path5894"
       cx="177.69389"
       cy="69.796532"
       rx="32.193649"
       ry="5.0618939" />
    <ellipse
       style="fill:#000000;stroke:#000000;stroke-width:0.992699;stroke-linecap:round;stroke-linejoin:round;stroke-miterlimit:4;stroke-dasharray:none"
       id="path5896"
       cx="68.154503"
       cy="68.986626"
       rx="4.8594179"
       ry="3.4420879" />
    <ellipse
       style="fill:#000000;stroke:#000000;stroke-width:0.992699;stroke-linecap:round;stroke-linejoin:round;stroke-miterlimit:4;stroke-dasharray:none"
       id="path5920"
       cx="176.47902"
       cy="69.999008"
       rx="6.2767487"
       ry="4.0495152" />
    <ellipse
       style="fill:#ffffff;stroke:#000000;stroke-width:0.992699;stroke-linecap:round;stroke-linejoin:round;stroke-miterlimit:4;stroke-dasharray:none"
       id="path6032"
       cx="67.74955"
       cy="68.784157"
       rx="2.0247576"
       ry="1.6198062" />
    <circle
       style="fill:#ffffff;stroke:#000000;stroke-width:0.992699;stroke-linecap:round;stroke-linejoin:round;stroke-miterlimit:4;stroke-dasharray:none"
       id="path6034"
       cx="177.28894"
       cy="69.796532"
       r="1.8222818" />
    <path
       style="fill:#000000;stroke:#000000;stroke-width:0.992699px;stroke-linecap:butt;stroke-linejoin:miter;stroke-opacity:1"
       d="m 78.278288,129.12193 c 0,0 53.858552,13.3634 67.221952,12.14854 13.3634,-1.21485 -7.69407,-20.24757 -23.08224,-21.05747 -15.38815,-0.8099 -44.139712,8.90893 -44.139712,8.90893 z"
       id="path6459" />
  </g>
  <metadata
     id="metadata4893">
    <rdf:RDF>
      <cc:Work
         rdf:about="" />
    </rdf:RDF>
  </metadata>
</svg>
